# xmcd CD database file
#
# Track frame offsets:
#	150
#	18756
#	39092
#	55408
#	68487
#	81550
#	98986
#	115010
#	132470
#	148364
#
# Disc length: 2222 seconds
#
# Revision: 2
# Processed by: cddbd v1.5.2PL0 Copyright (c) Steve Scherf et al.
# Submitted via: CDex 2.21
#
DISCID=8708ac0a
DTITLE=Maren Morris - Walk On
DYEAR=2004
DGENRE=Country
TTITLE0=Barrelhouse Blues
TTITLE1=Better Days
TTITLE2=Girl I See
TTITLE3=Help Wanted
TTITLE4=Hit The Ground
TTITLE5=Popular Girl
TTITLE6=Rain
TTITLE7=Thank You
TTITLE8=This Livin'
TTITLE9=Walk On
EXTD=YEAR: 2004
EXTT0=
EXTT1=
EXTT2=
EXTT3=
EXTT4=
EXTT5=
EXTT6=
EXTT7=
EXTT8=
EXTT9=
PLAYORDER=
